<svg width="446" height="59" viewBox="0 0 446 59" fill="none" xmlns="http://www.w3.org/2000/svg">
<rect width="446" height="59" fill="#1E1E1E"/>
<g clip-path="url(#clip0_0_1)">
<rect width="1440" height="6426" transform="translate(-72 -74)" fill="white"/>
<g filter="url(#filter0_d_0_1)">
<rect x="-72" y="-14" width="1440" height="104" fill="url(#paint0_linear_0_1)"/>
</g>
<path d="M34.0962 17.1512C34.368 16.7154 34.8366 16.3545 35.516 16.064V14.6675H20.0753C13.004 14.6675 7.89141 15.8859 4.73766 18.3227C1.57922 20.7595 0 23.9695 0 27.948C0 30.4972 0.65137 32.8309 1.9588 34.9537C3.26153 37.0765 5.41246 38.7635 8.4022 40.0194C11.3919 41.2706 15.4267 41.8985 20.5017 41.8985H22.9198V54.2371C22.9198 55.9803 21.9919 57.119 20.1456 57.6579L18.0087 58.2624V58.9326H35.516V57.6532C34.8038 57.3908 34.3211 57.0347 34.0634 56.5848C33.7541 56.0506 33.5994 55.3336 33.5994 54.4386V19.2974C33.5994 18.4024 33.7681 17.6901 34.0962 17.1512ZM22.9198 40.5536H20.2159C17.8916 40.5536 15.9937 40.1975 14.5223 39.4805C13.0508 38.7635 11.959 37.5123 11.2467 35.7269C10.5344 33.9415 10.1782 31.4579 10.1782 28.2854C10.1782 25.1129 10.5719 22.5636 11.3545 20.7735C12.137 18.9881 13.2898 17.7463 14.8081 17.0528C16.3264 16.3592 18.2243 16.0124 20.5017 16.0124H22.9198V40.5583V40.5536Z" fill="#1891DD"/>
<path d="M82.9301 57.9906C82.0304 57.6345 81.304 57.2174 80.7605 56.7488C80.2122 56.2802 79.7295 55.6663 79.3031 54.9025L69.4107 36.3924C72.78 35.3192 75.2449 33.8009 76.8148 31.8328C78.3799 29.8646 79.1625 27.9011 79.1625 25.9329C79.1625 22.3996 77.6676 19.6395 74.6779 17.6526C71.6881 15.6657 67.391 14.6675 61.7911 14.6675H43.534V16.1249C44.1713 16.4108 44.5977 16.7622 44.8133 17.184C45.0757 17.6994 45.2069 18.4024 45.2069 19.2974V54.3683C45.2069 55.3055 45.0663 56.0365 44.7805 56.5473C44.5602 56.941 44.1479 57.2784 43.5387 57.5548V58.9279H59.6589V58.2578L57.9485 57.6532C57.0487 57.3861 56.4536 56.9831 56.1677 56.4442C55.8819 55.91 55.7413 55.2165 55.7413 54.3636V37.7982H60.5821L71.1164 58.9232H83.858V58.3187L82.9301 57.986V57.9906ZM66.5569 33.8806C65.0386 35.6004 62.569 36.4626 59.1528 36.4626H55.7366V16.0078H59.5089C62.8783 16.0078 65.2729 16.8466 66.6974 18.5242C68.122 20.2018 68.8343 22.7604 68.8343 26.2047C68.8343 29.649 68.0752 32.1608 66.5569 33.8806Z" fill="#1891DD"/>
<path d="M56.1912 5.77329V12.7931L50.4648 7.01042H43.534V58.9279H35.5161V7.01042H29.2085L22.7136 12.0902V5.78266L30.2582 0H49.6353L56.1912 5.77329Z" fill="#1891DD"/>
<path d="M120.911 26.5937C118.666 24.9161 115.363 24.0772 110.995 24.0772H98.4693V58.9279H106.572V43.9838C107.017 44.0541 107.574 44.1104 108.244 44.1666C109.2 44.2416 110.119 44.2838 110.995 44.2838C113.732 44.2838 116.089 43.8526 118.085 42.9857C120.077 42.1188 121.605 40.9004 122.673 39.3118C123.741 37.7279 124.276 35.8722 124.276 33.7353C124.276 30.6565 123.151 28.2807 120.906 26.5984L120.911 26.5937ZM115.067 39.2602C114.58 40.6286 113.849 41.683 112.879 42.4187C111.909 43.1591 110.663 43.5246 109.154 43.5246C108.624 43.5246 108.118 43.4871 107.649 43.4075C107.242 43.3372 106.881 43.2528 106.567 43.145V24.8317H109.2C111.431 24.8317 113.09 25.6846 114.172 27.395C115.255 29.1054 115.799 31.4063 115.799 34.293C115.799 36.2424 115.555 37.8919 115.067 39.2602Z" fill="#DB5D16"/>
<path d="M131.342 57.3252C129.299 56.2568 127.701 54.7291 126.539 52.7328C125.377 50.7412 124.796 48.4216 124.796 45.788C124.796 43.1544 125.41 40.8113 126.633 38.7682C127.856 36.7297 129.519 35.1505 131.624 34.0352C133.728 32.9199 136.099 32.3623 138.737 32.3623C141.375 32.3623 143.676 32.8965 145.733 33.9649C147.791 35.0334 149.389 36.5657 150.537 38.5573C151.685 40.5536 152.256 42.8685 152.256 45.5021C152.256 48.1357 151.652 50.4788 150.443 52.5219C149.234 54.5651 147.575 56.1396 145.476 57.2549C143.372 58.3702 140.986 58.9279 138.315 58.9279C135.644 58.9279 133.385 58.3936 131.347 57.3252H131.342ZM141.844 56.7348C142.692 55.7132 143.311 54.2839 143.704 52.447C144.098 50.61 144.295 48.4028 144.295 45.8302C144.295 43.2575 144.075 40.9707 143.634 39.0728C143.194 37.1749 142.533 35.6894 141.656 34.621C140.775 33.5526 139.707 33.0183 138.456 33.0183C137.205 33.0183 136.099 33.5291 135.255 34.5507C134.407 35.5723 133.779 37.0015 133.371 38.8385C132.964 40.6754 132.758 42.9107 132.758 45.549C132.758 48.1873 132.978 50.3616 133.418 52.2595C133.859 54.1574 134.515 55.6335 135.396 56.6879C136.277 57.7423 137.341 58.2671 138.596 58.2671C139.913 58.2671 141 57.7563 141.844 56.7348Z" fill="#DB5D16"/>
<path d="M181.217 53.8434V20.2159H181.025L177.519 21.2281C175.247 21.8841 173.681 23.9648 173.681 26.3313V34.3258C173.41 34.1149 173.128 33.9181 172.838 33.7353C171.362 32.8215 169.614 32.367 167.608 32.367C165.289 32.367 163.152 32.9668 161.202 34.1571C159.258 35.352 157.711 36.9922 156.563 39.0822C155.415 41.1675 154.843 43.548 154.843 46.2144C154.843 48.6653 155.321 50.8584 156.282 52.7844C157.238 54.7197 158.555 56.224 160.237 57.3111C161.915 58.3936 163.756 58.9325 165.767 58.9325C167.088 58.9325 168.311 58.6936 169.44 58.2062C170.57 57.7188 171.605 57.0534 172.547 56.2052C172.96 55.835 173.372 55.4226 173.775 54.9775L175.092 58.8904L182.252 57.0534L181.217 53.8528V53.8434ZM173.681 53.8903C173.306 54.3308 172.936 54.715 172.575 55.0431C171.901 55.6523 171.216 56.0928 170.523 56.3599C169.829 56.627 169.126 56.7629 168.405 56.7629C167.21 56.7629 166.207 56.4067 165.387 55.6991C164.576 54.9915 163.939 53.8247 163.48 52.1892C163.03 50.5585 162.8 48.3747 162.8 45.6474C162.8 42.9201 163.016 40.7176 163.461 38.8666C163.906 37.0156 164.548 35.6004 165.415 34.6257C166.277 33.6557 167.336 33.1636 168.592 33.1636C169.848 33.1636 170.874 33.6041 171.774 34.4804C172.664 35.3614 173.302 36.5423 173.681 38.0137V53.8903Z" fill="#DB5D16"/>
<path d="M211.409 53.8434V20.2159H211.217L207.712 21.2281C205.439 21.8841 203.874 23.9648 203.874 26.3313V34.3258C203.602 34.1149 203.321 33.9181 203.026 33.7353C201.55 32.8215 199.806 32.367 197.801 32.367C195.476 32.367 193.344 32.9668 191.395 34.1571C189.445 35.352 187.899 36.9922 186.756 39.0822C185.608 41.1675 185.036 43.548 185.036 46.2144C185.036 48.6653 185.514 50.8584 186.47 52.7844C187.43 54.7197 188.747 56.224 190.425 57.3111C192.102 58.3936 193.954 58.9325 195.959 58.9325C197.276 58.9325 198.504 58.6936 199.633 58.2062C200.762 57.7188 201.798 57.0534 202.74 56.2052C203.152 55.835 203.565 55.4226 203.968 54.9775L205.285 58.8904L212.445 57.0534L211.409 53.8528V53.8434ZM202.763 55.0431C202.089 55.6523 201.409 56.0928 200.72 56.3599C200.031 56.627 199.324 56.7629 198.602 56.7629C197.407 56.7629 196.404 56.4067 195.584 55.6991C194.764 54.9915 194.136 53.8247 193.677 52.1892C193.222 50.5585 192.998 48.3747 192.998 45.6474C192.998 42.9201 193.213 40.7176 193.658 38.8666C194.094 37.0109 194.745 35.6004 195.612 34.6257C196.475 33.6557 197.534 33.1636 198.79 33.1636C200.045 33.1636 201.072 33.6041 201.971 34.4804C202.862 35.3614 203.499 36.5423 203.879 38.0137V53.8856C203.508 54.3308 203.134 54.715 202.768 55.0431H202.763Z" fill="#DB5D16"/>
<path d="M239.048 57.044C238.326 57.044 237.811 56.9128 237.497 56.641C237.183 56.3739 236.986 56.0131 236.906 55.5585C236.827 55.1087 236.789 54.4058 236.789 53.4639V41.4065C236.789 38.3324 235.941 36.0503 234.245 34.5741C232.548 33.098 229.976 32.3576 226.522 32.3576C224.226 32.3576 222.314 32.7091 220.777 33.3979C219.235 34.0868 217.745 35.0943 216.306 36.4111L216.728 36.9312C217.857 36.0503 218.996 35.3942 220.144 34.9771C221.292 34.5507 222.478 34.3398 223.701 34.3398C225.299 34.3398 226.513 34.6866 227.328 35.3755C228.139 36.0643 228.668 36.9219 228.907 37.9388C229.142 38.9603 229.259 40.2724 229.259 41.8751V44.4197C227.637 44.5556 226.208 44.7008 224.971 44.8414C221.77 45.1554 219.249 46.0223 217.412 47.4328C215.575 48.848 214.657 50.6194 214.657 52.7563C214.657 54.5135 215.261 55.9662 216.475 57.1096C217.679 58.2577 219.291 58.8295 221.302 58.8295C223.059 58.8295 224.76 58.3843 226.41 57.4845C227.52 56.8847 228.504 56.1349 229.348 55.254C229.479 55.8678 229.774 56.5426 230.224 57.2737C230.866 58.3093 232.258 58.8295 234.395 58.8295C235.618 58.8295 236.733 58.6467 237.736 58.2859C238.739 57.925 239.493 57.5689 239.999 57.2221V56.941C239.624 57.0066 239.31 57.0347 239.053 57.0347L239.048 57.044ZM227.722 55.6991C226.92 56.1865 226.128 56.4302 225.341 56.4302C224.338 56.4302 223.513 56.0412 222.871 55.2727C222.225 54.5089 221.906 53.3654 221.906 51.8565C221.906 50.5725 222.187 49.4666 222.75 48.5387C223.317 47.6156 224.146 46.8611 225.247 46.28C226.306 45.7177 227.637 45.3288 229.254 45.1085V54.3776C228.767 54.9353 228.256 55.3758 227.726 55.6991H227.722Z" fill="#DB5D16"/>
<path d="M259.681 32.6481L257.703 38.1543C256.822 37.7466 255.988 37.5451 255.206 37.5451C254.423 37.5451 253.645 37.7419 252.97 38.1356C252.291 38.5292 251.729 39.0869 251.269 39.8038C250.88 40.4177 250.59 41.1159 250.398 41.8985V58.3655H242.867V38.0887C242.867 35.6426 244.54 33.5104 246.916 32.9293L249.976 32.1795H250.168V40.5677C250.482 38.965 250.993 37.5592 251.696 36.3502C252.436 35.0755 253.317 34.0961 254.334 33.4073C255.356 32.7184 256.443 32.367 257.605 32.367C258.233 32.367 258.922 32.4607 259.676 32.6528L259.681 32.6481Z" fill="#DB5D16"/>
<path d="M294.058 29.6303H293.965C292.02 27.8402 290.426 26.6077 289.185 25.9329C287.948 25.2581 286.621 24.9207 285.206 24.9207H284.545L284.569 58.9279H276.467L276.443 24.9207H275.782C274.395 24.9207 273.079 25.2628 271.827 25.9329C270.567 26.6077 268.988 27.8402 267.066 29.6303H266.973L267.727 24.0726H293.304L294.058 29.6303Z" fill="#DB5D16"/>
<path d="M297.264 57.3252C295.22 56.2568 293.622 54.7291 292.46 52.7328C291.298 50.7412 290.717 48.4216 290.717 45.788C290.717 43.1544 291.331 40.8113 292.554 38.7682C293.777 36.7297 295.441 35.1505 297.545 34.0352C299.649 32.9199 302.02 32.3623 304.658 32.3623C307.297 32.3623 309.597 32.8965 311.65 33.9649C313.707 35.0334 315.305 36.5657 316.453 38.5573C317.601 40.5536 318.173 42.8685 318.173 45.5021C318.173 48.1357 317.568 50.4788 316.359 52.5219C315.15 54.5651 313.496 56.1396 311.392 57.2549C309.288 58.3702 306.903 58.9279 304.232 58.9279C301.561 58.9279 299.302 58.3936 297.259 57.3252H297.264ZM307.765 56.7348C308.613 55.7132 309.232 54.2839 309.625 52.447C310.019 50.61 310.216 48.4028 310.216 45.8302C310.216 43.2575 309.996 40.9707 309.555 39.0728C309.115 37.1749 308.454 35.6894 307.578 34.621C306.697 33.5526 305.628 33.0183 304.372 33.0183C303.117 33.0183 302.02 33.5291 301.172 34.5507C300.324 35.5723 299.696 37.0015 299.288 38.8385C298.88 40.6754 298.674 42.9107 298.674 45.549C298.674 48.1873 298.894 50.3616 299.335 52.2595C299.775 54.1574 300.436 55.6335 301.312 56.6879C302.189 57.7423 303.257 58.2671 304.513 58.2671C305.83 58.2671 306.917 57.7563 307.76 56.7348H307.765Z" fill="#DB5D16"/>
<path d="M347.002 57.044L339.795 58.881L338.445 54.7385C338.037 55.2211 337.625 55.6616 337.227 56.0553C336.393 56.866 335.38 57.5548 334.19 58.0984C332.995 58.6514 331.632 58.9232 330.09 58.9232C327.391 58.9232 325.319 58.1781 323.876 56.6879C322.433 55.2024 321.711 52.9296 321.711 49.8837V38.1168C321.711 35.6566 323.403 33.5151 325.797 32.9481L329.059 32.1748H329.251V50.6381C329.251 52.2127 329.499 53.5998 330.005 54.8275C330.507 56.0553 331.636 56.6645 333.393 56.6645C334.021 56.6645 334.673 56.5005 335.348 56.1724C336.022 55.8444 336.697 55.3805 337.372 54.7807C337.723 54.4714 338.08 54.1152 338.436 53.7216V38.1121C338.436 35.6519 340.127 33.5104 342.522 32.9434L345.784 32.1702H345.976V53.8341L347.011 57.0347L347.002 57.044Z" fill="#DB5D16"/>
<path d="M367.818 32.6481L365.835 38.1543C364.959 37.7466 364.125 37.5451 363.338 37.5451C362.55 37.5451 361.777 37.7419 361.102 38.1356C360.428 38.5292 359.865 39.0869 359.406 39.8038C359.017 40.4177 358.727 41.1159 358.534 41.8985V58.9279H350.999V38.084C350.999 35.6379 352.672 33.5057 355.048 32.9246L358.113 32.1748H358.305V40.563C358.619 38.9603 359.13 37.5545 359.833 36.3455C360.573 35.0709 361.449 34.0915 362.466 33.4026C363.483 32.7137 364.58 32.3623 365.742 32.3623C366.37 32.3623 367.059 32.456 367.813 32.6481H367.818Z" fill="#DB5D16"/>
<path d="M369.322 24.8739L373.985 20.2112L378.6 24.8739L373.985 29.5366L369.322 24.8739ZM370.217 38.1168C370.217 35.6566 371.909 33.5151 374.303 32.948L377.565 32.1748H377.752V58.9279H370.217V38.1168Z" fill="#DB5D16"/>
<path d="M385.405 58.314C383.474 57.9063 382.134 57.4845 381.379 57.044L382.368 53.4639C383.343 54.8463 384.66 55.9897 386.323 56.9035C387.987 57.8126 389.791 58.2671 391.74 58.2671C393.437 58.2671 394.749 57.9063 395.672 57.1846C396.6 56.463 397.059 55.507 397.059 54.312C397.059 53.0562 396.604 52.0908 395.695 51.416C394.786 50.7412 393.404 50.043 391.553 49.3213L391.365 49.2745L389.388 48.5669L389.2 48.4263C387.912 47.9858 386.745 47.4703 385.69 46.8705C384.636 46.2754 383.713 45.4412 382.912 44.3728C382.11 43.3044 381.712 42.0157 381.712 40.5114C381.712 39.0072 382.106 37.6763 382.888 36.4392C383.671 35.1974 384.828 34.2086 386.351 33.4729C387.874 32.7372 389.721 32.367 391.885 32.367C393.549 32.367 395.11 32.5544 396.572 32.934C398.034 33.3136 399.261 33.7213 400.269 34.1571L399.421 37.264C398.413 36.069 397.209 35.0662 395.794 34.2508C394.383 33.4354 392.827 33.0277 391.131 33.0277C389.594 33.0277 388.399 33.3792 387.551 34.0868C386.703 34.7944 386.281 35.6941 386.281 36.7953C386.281 37.5826 386.515 38.2621 386.989 38.8432C387.457 39.4243 388.048 39.8976 388.755 40.2584C389.463 40.6192 390.362 41.0222 391.464 41.458L392.031 41.6455L393.961 42.3999C394.088 42.4655 394.196 42.4937 394.289 42.4937C395.545 42.967 396.693 43.5059 397.729 44.1197C398.765 44.7336 399.674 45.5818 400.461 46.6643C401.244 47.7468 401.637 49.0589 401.637 50.596C401.637 52.133 401.239 53.5341 400.438 54.7853C399.636 56.0412 398.437 57.044 396.834 57.7985C395.231 58.553 393.268 58.9279 390.948 58.9279C389.191 58.9279 387.345 58.7217 385.414 58.314H385.405Z" fill="#DB5D16"/>
<path d="M445.34 41.4065V58.9279H437.805V40.652C437.805 39.0869 437.556 37.681 437.05 36.4626C436.549 35.2349 435.434 34.6257 433.709 34.6257C433.048 34.6257 432.42 34.7428 431.825 34.9818C431.23 35.2161 430.616 35.5957 429.988 36.1346C429.506 36.5423 428.99 37.0625 428.442 37.6857C428.756 38.7588 428.906 40.0053 428.906 41.4112V58.9325H421.375V40.6567C421.375 39.0915 421.132 37.6857 420.644 36.4673C420.157 35.2396 419.037 34.6304 417.275 34.6304C416.647 34.6304 416.033 34.7475 415.438 34.9865C414.843 35.2208 414.219 35.6004 413.577 36.1393C413.231 36.4205 412.875 36.7532 412.514 37.1421V58.9325H404.983V38.1215C404.983 35.6613 406.675 33.5198 409.069 32.9527L412.331 32.1795H412.518V36.1721C412.968 35.6801 413.409 35.2442 413.84 34.86C414.683 34.1102 415.677 33.5057 416.802 33.0465C417.931 32.5919 419.22 32.3623 420.663 32.3623C423.301 32.3623 425.335 33.1121 426.764 34.6022C427.355 35.2161 427.823 35.9659 428.165 36.8469C428.835 36.0643 429.477 35.4036 430.105 34.8553C430.972 34.1055 431.97 33.501 433.095 33.0418C434.225 32.5872 435.546 32.3576 437.05 32.3576C439.721 32.3576 441.769 33.1074 443.194 34.5976C444.623 36.0831 445.34 38.3558 445.34 41.4018V41.4065Z" fill="#DB5D16"/>
</g>
<defs>
<filter id="filter0_d_0_1" x="-76" y="-14" width="1448" height="112" filterUnits="userSpaceOnUse" color-interpolation-filters="sRGB">
<feFlood flood-opacity="0" result="BackgroundImageFix"/>
<feColorMatrix in="SourceAlpha" type="matrix" values="0 0 0 0 0 0 0 0 0 0 0 0 0 0 0 0 0 0 127 0" result="hardAlpha"/>
<feOffset dy="4"/>
<feGaussianBlur stdDeviation="2"/>
<feComposite in2="hardAlpha" operator="out"/>
<feColorMatrix type="matrix" values="0 0 0 0 0 0 0 0 0 0 0 0 0 0 0 0 0 0 0.25 0"/>
<feBlend mode="normal" in2="BackgroundImageFix" result="effect1_dropShadow_0_1"/>
<feBlend mode="normal" in="SourceGraphic" in2="effect1_dropShadow_0_1" result="shape"/>
</filter>
<linearGradient id="paint0_linear_0_1" x1="-72" y1="38" x2="1368" y2="38" gradientUnits="userSpaceOnUse">
<stop stop-color="#FFF3EC"/>
<stop offset="0.5" stop-color="white"/>
<stop offset="1" stop-color="#E8F6FF"/>
</linearGradient>
<clipPath id="clip0_0_1">
<rect width="1440" height="6426" fill="white" transform="translate(-72 -74)"/>
</clipPath>
</defs>
</svg>
