<svg width="372" height="50" viewBox="0 0 372 50" fill="none" xmlns="http://www.w3.org/2000/svg">
<path d="M28.4811 14.3266C28.7081 13.9625 29.0996 13.6611 29.6672 13.4184V12.252H16.7692C10.8624 12.252 6.59183 13.2697 3.95745 15.3052C1.31915 17.3406 0 20.022 0 23.3453C0 25.4747 0.5441 27.4241 1.63621 29.1973C2.72441 30.9705 4.52112 32.3797 7.0185 33.4287C9.51588 34.4739 12.8862 34.9984 17.1255 34.9984H19.1453V45.3049C19.1453 46.7611 18.3702 47.7123 16.828 48.1624L15.043 48.6674V49.2271H29.6672V48.1585C29.0722 47.9393 28.669 47.6418 28.4537 47.266C28.1953 46.8198 28.0662 46.2209 28.0662 45.4732V16.1194C28.0662 15.3717 28.2071 14.7767 28.4811 14.3266ZM19.1453 33.875H16.8867C14.9451 33.875 13.3598 33.5775 12.1307 32.9786C10.9016 32.3797 9.98952 31.3345 9.39453 29.8431C8.79955 28.3518 8.50205 26.2772 8.50205 23.6271C8.50205 20.9771 8.83086 18.8477 9.48456 17.3524C10.1383 15.861 11.1012 14.8237 12.3695 14.2444C13.6377 13.665 15.2231 13.3754 17.1255 13.3754H19.1453V33.8789V33.875Z" fill="white"/>
<path d="M69.2729 48.4403C68.5214 48.1428 67.9146 47.7945 67.4606 47.403C67.0026 47.0116 66.5994 46.4988 66.2432 45.8608L57.9799 30.399C60.7944 29.5026 62.8533 28.2343 64.1646 26.5903C65.4721 24.9463 66.1258 23.3061 66.1258 21.6621C66.1258 18.7107 64.8771 16.4051 62.3797 14.7454C59.8823 13.0857 56.2928 12.252 51.6151 12.252H36.3647V13.4693C36.897 13.7081 37.2532 14.0017 37.4333 14.354C37.6525 14.7846 37.7621 15.3717 37.7621 16.1194V45.4145C37.7621 46.1974 37.6447 46.808 37.4059 47.2347C37.2219 47.5635 36.8774 47.8454 36.3686 48.0763V49.2232H49.8341V48.6635L48.4053 48.1585C47.6538 47.9354 47.1566 47.5987 46.9179 47.1486C46.6791 46.7024 46.5616 46.123 46.5616 45.4106V31.5733H50.6052L59.4047 49.2193H70.048V48.7143L69.2729 48.4364V48.4403ZM55.5961 28.3009C54.3278 29.7375 52.2649 30.4577 49.4113 30.4577H46.5577V13.3715H49.7088C52.5233 13.3715 54.5235 14.0721 55.7135 15.4735C56.9035 16.8748 57.4984 19.0121 57.4984 21.8891C57.4984 24.7662 56.8643 26.8643 55.5961 28.3009Z" fill="white"/>
<path d="M46.9374 4.82251V10.6862L42.1541 5.8559H36.3647V49.2233H29.6672V5.8559H24.3984L18.973 10.0991V4.83034L25.2752 0H41.4612L46.9374 4.82251Z" fill="white"/>
<path d="M100.999 22.2143C99.124 20.813 96.3644 20.1123 92.7162 20.1123H82.253V49.2235H89.021V36.7406C89.3929 36.7993 89.8587 36.8463 90.4184 36.8932C91.217 36.9559 91.9842 36.9911 92.7162 36.9911C95.0022 36.9911 96.9711 36.631 98.6387 35.9068C100.302 35.1826 101.578 34.1649 102.471 32.8379C103.363 31.5149 103.81 29.9648 103.81 28.1798C103.81 25.6081 102.87 23.6235 100.995 22.2182L100.999 22.2143ZM96.1178 32.7949C95.7107 33.9379 95.1 34.8186 94.2898 35.4332C93.4795 36.0516 92.4383 36.357 91.1778 36.357C90.7355 36.357 90.3127 36.3256 89.9213 36.2591C89.5808 36.2004 89.2793 36.1299 89.0171 36.0399V20.7425H91.217C93.0802 20.7425 94.4659 21.4549 95.3701 22.8837C96.2744 24.3124 96.7284 26.2344 96.7284 28.6456C96.7284 30.274 96.5249 31.6519 96.1178 32.7949Z" fill="white"/>
<path d="M109.712 47.8846C108.006 46.9921 106.671 45.716 105.7 44.0485C104.729 42.3849 104.244 40.4473 104.244 38.2474C104.244 36.0475 104.757 34.0903 105.779 32.3837C106.8 30.6809 108.19 29.3618 109.947 28.4301C111.705 27.4985 113.686 27.0327 115.889 27.0327C118.093 27.0327 120.015 27.479 121.734 28.3714C123.452 29.2639 124.787 30.5439 125.746 32.2075C126.705 33.875 127.182 35.8087 127.182 38.0086C127.182 40.2085 126.677 42.1657 125.668 43.8724C124.658 45.579 123.272 46.8942 121.518 47.8259C119.761 48.7575 117.768 49.2233 115.537 49.2233C113.306 49.2233 111.419 48.7771 109.716 47.8846H109.712ZM118.485 47.3914C119.193 46.538 119.71 45.3442 120.039 43.8097C120.367 42.2753 120.532 40.4316 120.532 38.2826C120.532 36.1336 120.348 34.2234 119.98 32.6381C119.612 31.0528 119.06 29.8119 118.328 28.9194C117.592 28.027 116.7 27.5807 115.655 27.5807C114.609 27.5807 113.686 28.0074 112.981 28.8607C112.272 29.7141 111.748 30.9079 111.407 32.4424C111.067 33.9768 110.895 35.844 110.895 38.0478C110.895 40.2516 111.079 42.0678 111.447 43.6531C111.814 45.2385 112.363 46.4715 113.098 47.3522C113.834 48.233 114.723 48.6714 115.772 48.6714C116.872 48.6714 117.78 48.2447 118.485 47.3914Z" fill="white"/>
<path d="M151.373 44.9768V16.8872H151.213L148.285 17.7327C146.386 18.2807 145.079 20.0187 145.079 21.9955V28.6734C144.852 28.4972 144.617 28.3328 144.374 28.1802C143.141 27.4169 141.681 27.0372 140.006 27.0372C138.068 27.0372 136.283 27.5382 134.655 28.5325C133.03 29.5306 131.739 30.9007 130.78 32.6465C129.821 34.3884 129.343 36.3769 129.343 38.6042C129.343 40.6514 129.742 42.4833 130.545 44.0921C131.343 45.7087 132.443 46.9653 133.849 47.8734C135.25 48.7776 136.788 49.2278 138.468 49.2278C139.571 49.2278 140.593 49.0281 141.536 48.621C142.48 48.2139 143.345 47.6581 144.132 46.9496C144.476 46.6404 144.821 46.2959 145.157 45.924L146.257 49.1925L152.238 47.6581L151.373 44.9846V44.9768ZM145.079 45.0159C144.766 45.3838 144.457 45.7048 144.155 45.9788C143.591 46.4877 143.02 46.8557 142.441 47.0788C141.861 47.3019 141.274 47.4154 140.671 47.4154C139.673 47.4154 138.836 47.1179 138.15 46.5268C137.473 45.9358 136.941 44.9611 136.557 43.595C136.182 42.2328 135.99 40.4087 135.99 38.1305C135.99 35.8524 136.17 34.0126 136.542 32.4664C136.914 30.9202 137.45 29.7381 138.174 28.9239C138.894 28.1136 139.779 27.7026 140.828 27.7026C141.877 27.7026 142.734 28.0706 143.486 28.8026C144.23 29.5385 144.762 30.5249 145.079 31.754V45.0159Z" fill="white"/>
<path d="M176.594 44.9768V16.8872H176.433L173.505 17.7327C171.607 18.2807 170.299 20.0187 170.299 21.9955V28.6734C170.072 28.4972 169.837 28.3328 169.591 28.1802C168.358 27.4169 166.902 27.0372 165.226 27.0372C163.285 27.0372 161.504 27.5382 159.875 28.5325C158.247 29.5306 156.955 30.9007 156 32.6465C155.041 34.3884 154.564 36.3769 154.564 38.6042C154.564 40.6514 154.963 42.4833 155.761 44.0921C156.564 45.7087 157.664 46.9653 159.065 47.8734C160.466 48.7776 162.013 49.2278 163.688 49.2278C164.788 49.2278 165.813 49.0281 166.757 48.621C167.7 48.2139 168.565 47.6581 169.352 46.9496C169.697 46.6404 170.041 46.2959 170.378 45.924L171.478 49.1925L177.459 47.6581L176.594 44.9846V44.9768ZM169.372 45.9788C168.808 46.4877 168.24 46.8557 167.665 47.0788C167.09 47.3019 166.498 47.4154 165.896 47.4154C164.897 47.4154 164.06 47.1179 163.375 46.5268C162.69 45.9358 162.165 44.9611 161.782 43.595C161.402 42.2328 161.214 40.4087 161.214 38.1305C161.214 35.8524 161.394 34.0126 161.766 32.4664C162.13 30.9163 162.674 29.7381 163.398 28.9239C164.119 28.1136 165.003 27.7026 166.052 27.7026C167.101 27.7026 167.959 28.0706 168.71 28.8026C169.454 29.5385 169.986 30.5249 170.303 31.754V45.012C169.994 45.3838 169.681 45.7048 169.376 45.9788H169.372Z" fill="white"/>
<path d="M199.681 47.6497C199.078 47.6497 198.647 47.5401 198.385 47.3131C198.123 47.09 197.958 46.7886 197.892 46.4089C197.825 46.0331 197.794 45.4459 197.794 44.6591V34.5875C197.794 32.0196 197.086 30.1133 195.669 28.8803C194.252 27.6473 192.103 27.0288 189.218 27.0288C187.3 27.0288 185.703 27.3224 184.419 27.8978C183.131 28.4732 181.886 29.3148 180.684 30.4147L181.037 30.8492C181.98 30.1133 182.931 29.5653 183.89 29.2169C184.849 28.8607 185.84 28.6846 186.861 28.6846C188.196 28.6846 189.21 28.9743 189.891 29.5497C190.568 30.1251 191.01 30.8414 191.21 31.6908C191.406 32.5442 191.504 33.6402 191.504 34.9789V37.1044C190.149 37.2179 188.955 37.3393 187.922 37.4567C185.248 37.719 183.142 38.4431 181.608 39.6213C180.074 40.8035 179.306 42.2831 179.306 44.0681C179.306 45.536 179.811 46.7494 180.825 47.7045C181.831 48.6636 183.178 49.1411 184.857 49.1411C186.325 49.1411 187.746 48.7692 189.124 48.0177C190.051 47.5166 190.873 46.8903 191.578 46.1544C191.688 46.6672 191.934 47.2309 192.31 47.8415C192.846 48.7066 194.009 49.1411 195.794 49.1411C196.815 49.1411 197.747 48.9884 198.585 48.687C199.422 48.3856 200.053 48.0881 200.475 47.7985V47.5636C200.162 47.6184 199.9 47.6419 199.685 47.6419L199.681 47.6497ZM190.22 46.5263C189.55 46.9334 188.889 47.1369 188.231 47.1369C187.394 47.1369 186.705 46.812 186.168 46.1701C185.628 45.532 185.362 44.5769 185.362 43.3165C185.362 42.244 185.597 41.3202 186.067 40.5451C186.54 39.774 187.233 39.1438 188.153 38.6584C189.038 38.1887 190.149 37.8638 191.5 37.6798V45.4224C191.093 45.8883 190.666 46.2562 190.224 46.5263H190.22Z" fill="white"/>
<path d="M216.916 27.2713L215.264 31.8707C214.528 31.5302 213.831 31.3618 213.178 31.3618C212.524 31.3618 211.874 31.5262 211.31 31.8551C210.743 32.1839 210.273 32.6497 209.889 33.2486C209.565 33.7614 209.322 34.3446 209.161 34.9983V48.7534H202.871V31.8159C202.871 29.7726 204.268 27.9916 206.253 27.5062L208.809 26.8799H208.97V33.8866C209.232 32.5479 209.659 31.3736 210.246 30.3637C210.864 29.299 211.6 28.4809 212.449 27.9054C213.303 27.33 214.211 27.0365 215.182 27.0365C215.706 27.0365 216.282 27.1147 216.912 27.2752L216.916 27.2713Z" fill="white"/>
<path d="M245.632 24.7504H245.553C243.929 23.2551 242.598 22.2256 241.561 21.6619C240.527 21.0982 239.42 20.8164 238.237 20.8164H237.686L237.705 49.223H230.937L230.918 20.8164H230.366C229.207 20.8164 228.107 21.1022 227.062 21.6619C226.009 22.2256 224.69 23.2551 223.085 24.7504H223.007L223.637 20.1079H245.002L245.632 24.7504Z" fill="white"/>
<path d="M248.309 47.8846C246.603 46.9921 245.268 45.716 244.297 44.0485C243.326 42.3849 242.841 40.4473 242.841 38.2474C242.841 36.0475 243.354 34.0903 244.375 32.3837C245.397 30.6809 246.787 29.3618 248.544 28.4301C250.302 27.4985 252.282 27.0327 254.486 27.0327C256.69 27.0327 258.612 27.479 260.326 28.3714C262.045 29.2639 263.38 30.5439 264.339 32.2075C265.298 33.875 265.775 35.8087 265.775 38.0086C265.775 40.2085 265.27 42.1657 264.26 43.8724C263.25 45.579 261.869 46.8942 260.111 47.8259C258.354 48.7575 256.361 49.2233 254.13 49.2233C251.899 49.2233 250.012 48.7771 248.305 47.8846H248.309ZM257.081 47.3914C257.79 46.538 258.307 45.3442 258.635 43.8097C258.964 42.2753 259.129 40.4316 259.129 38.2826C259.129 36.1336 258.945 34.2234 258.577 32.6381C258.209 31.0528 257.657 29.8119 256.925 28.9194C256.189 28.027 255.296 27.5807 254.247 27.5807C253.198 27.5807 252.282 28.0074 251.574 28.8607C250.865 29.7141 250.341 30.9079 250 32.4424C249.66 33.9768 249.487 35.844 249.487 38.0478C249.487 40.2516 249.671 42.0678 250.039 43.6531C250.407 45.2385 250.959 46.4715 251.691 47.3522C252.423 48.233 253.316 48.6714 254.365 48.6714C255.465 48.6714 256.373 48.2447 257.077 47.3914H257.081Z" fill="white"/>
<path d="M289.857 47.6501L283.836 49.1845L282.709 45.7242C282.368 46.1274 282.024 46.4953 281.691 46.8241C280.994 47.5013 280.149 48.0767 279.155 48.5308C278.156 48.9927 277.017 49.2197 275.73 49.2197C273.475 49.2197 271.745 48.5973 270.539 47.3526C269.333 46.1117 268.731 44.2132 268.731 41.6689V31.8399C268.731 29.7849 270.144 27.996 272.144 27.5223L274.868 26.8765H275.029V42.2991C275.029 43.6143 275.236 44.773 275.659 45.7986C276.078 46.8241 277.021 47.333 278.489 47.333C279.014 47.333 279.558 47.196 280.121 46.922C280.685 46.648 281.249 46.2605 281.812 45.7594C282.106 45.5011 282.404 45.2036 282.701 44.8748V31.836C282.701 29.7809 284.114 27.9921 286.114 27.5184L288.839 26.8726H288.999V44.9687L289.864 47.6422L289.857 47.6501Z" fill="white"/>
<path d="M307.244 27.2718L305.588 31.8712C304.856 31.5307 304.16 31.3623 303.502 31.3623C302.844 31.3623 302.199 31.5267 301.635 31.8555C301.071 32.1844 300.602 32.6502 300.218 33.2491C299.893 33.7618 299.65 34.3451 299.49 34.9988V49.2236H293.195V31.8125C293.195 29.7692 294.593 27.9881 296.578 27.5028L299.138 26.8765H299.298V33.8832C299.56 32.5445 299.987 31.3702 300.574 30.3603C301.193 29.2955 301.925 28.4774 302.774 27.902C303.623 27.3266 304.539 27.033 305.51 27.033C306.035 27.033 306.61 27.1113 307.24 27.2718H307.244Z" fill="white"/>
<path d="M308.501 20.7776L312.396 16.8828L316.251 20.7776L312.396 24.6724L308.501 20.7776ZM309.248 31.8396C309.248 29.7846 310.662 27.9957 312.662 27.5221L315.386 26.8762H315.543V49.2234H309.248V31.8396Z" fill="white"/>
<path d="M321.935 48.7105C320.322 48.37 319.203 48.0177 318.572 47.6497L319.398 44.6591C320.213 45.8139 321.313 46.769 322.702 47.5323C324.092 48.2917 325.599 48.6714 327.227 48.6714C328.644 48.6714 329.74 48.37 330.511 47.7671C331.286 47.1643 331.67 46.3658 331.67 45.3676C331.67 44.3186 331.29 43.5122 330.531 42.9486C329.772 42.3849 328.617 41.8016 327.071 41.1988L326.914 41.1597L325.262 40.5686L325.106 40.4512C324.029 40.0832 323.054 39.6526 322.174 39.1516C321.293 38.6545 320.522 37.9577 319.852 37.0652C319.183 36.1728 318.85 35.0963 318.85 33.8398C318.85 32.5833 319.179 31.4716 319.833 30.4382C320.487 29.4009 321.453 28.575 322.726 27.9604C323.998 27.3459 325.54 27.0366 327.349 27.0366C328.738 27.0366 330.042 27.1932 331.263 27.5103C332.484 27.8273 333.51 28.1679 334.351 28.5319L333.643 31.1271C332.801 30.129 331.795 29.2913 330.613 28.6102C329.435 27.9291 328.135 27.5885 326.718 27.5885C325.434 27.5885 324.436 27.8821 323.728 28.4732C323.019 29.0643 322.667 29.8158 322.667 30.7357C322.667 31.3933 322.863 31.9609 323.258 32.4463C323.649 32.9317 324.143 33.327 324.734 33.6284C325.325 33.9298 326.076 34.2665 326.996 34.6305L327.47 34.7871L329.083 35.4173C329.188 35.4721 329.278 35.4956 329.357 35.4956C330.406 35.8909 331.365 36.3411 332.23 36.8539C333.095 37.3667 333.854 38.0752 334.512 38.9794C335.166 39.8836 335.494 40.9796 335.494 42.2635C335.494 43.5475 335.162 44.7178 334.492 45.763C333.823 46.812 332.821 47.6497 331.482 48.2799C330.143 48.9101 328.503 49.2233 326.566 49.2233C325.098 49.2233 323.555 49.0511 321.943 48.7105H321.935Z" fill="white"/>
<path d="M372 34.5873V49.2231H365.706V33.9571C365.706 32.6497 365.498 31.4754 365.075 30.4576C364.657 29.4321 363.725 28.9232 362.284 28.9232C361.733 28.9232 361.208 29.021 360.711 29.2207C360.214 29.4164 359.701 29.7335 359.176 30.1836C358.773 30.5242 358.343 30.9587 357.885 31.4793C358.147 32.3757 358.272 33.4169 358.272 34.5912V49.227H351.982V33.961C351.982 32.6536 351.778 31.4793 351.371 30.4615C350.964 29.436 350.029 28.9271 348.557 28.9271C348.032 28.9271 347.519 29.025 347.022 29.2246C346.525 29.4203 346.005 29.7374 345.468 30.1875C345.179 30.4224 344.881 30.7003 344.58 31.0252V49.227H338.289V31.8433C338.289 29.7883 339.702 27.9994 341.703 27.5258L344.427 26.8799H344.584V30.2149C344.959 29.8039 345.327 29.4399 345.687 29.1189C346.392 28.4926 347.222 27.9876 348.161 27.604C349.105 27.2243 350.181 27.0325 351.387 27.0325C353.591 27.0325 355.289 27.6588 356.483 28.9036C356.977 29.4164 357.368 30.0427 357.654 30.7786C358.213 30.1249 358.75 29.573 359.274 29.115C359.998 28.4887 360.832 27.9837 361.772 27.6001C362.715 27.2204 363.819 27.0286 365.075 27.0286C367.307 27.0286 369.017 27.6549 370.207 28.8997C371.401 30.1406 372 32.039 372 34.5834V34.5873Z" fill="white"/>
</svg>
